HIERARCHY
ROOT ui
{
	 OFFSET 0 0 0
	 CHANNELS 3 XPosition YPosition Z Position
	 EndSite
	 {
	 OFFSET 0 -1 0
	 }
}
ROOT li
{
	 OFFSET 0 0 0
	 CHANNELS 3 XPosition YPosition Z Position
	 EndSite
	 {
	 OFFSET 0 -1 0
	 }
}
ROOT ul
{
	 OFFSET 0 0 0
	 CHANNELS 3 XPosition YPosition Z Position
	 EndSite
	 {
	 OFFSET 0 -1 0
	 }
}
ROOT ll
{
	 OFFSET 0 0 0
	 CHANNELS 3 XPosition YPosition Z Position
	 EndSite
	 {
	 OFFSET 0 -1 0
	 }
}
ROOT tt
{
	 OFFSET 0 0 0
	 CHANNELS 3 XPosition YPosition Z Position
	 EndSite
	 {
	 OFFSET 0 -1 0
	 }
}
ROOT tb
{
	 OFFSET 0 0 0
	 CHANNELS 3 XPosition YPosition Z Position
	 EndSite
	 {
	 OFFSET 0 -1 0
	 }
}
ROOT td
{
	 OFFSET 0 0 0
	 CHANNELS 3 XPosition YPosition Z Position
	 EndSite
	 {
	 OFFSET 0 -1 0
	 }
}
ROOT v
{
	 OFFSET 0 0 0
	 CHANNELS 3 XPosition YPosition Z Position
	 EndSite
	 {
	 OFFSET 0 -1 0
	 }
}
ROOT bn
{
	 OFFSET 0 0 0
	 CHANNELS 3 XPosition YPosition Z Position
	 EndSite
	 {
	 OFFSET 0 -1 0
	 }
}
MOTION
Frames: 16
Frame Time: 0.002
-5.108659863471985E-4	2.2639599442481994E-4	0		0.5020959167480469	-2.353889892578125	0		-1.0927652587890626	-0.019909162521362305	0		-0.6275194702148438	-2.51066064453125	0		1.6079281005859376	-0.5668019409179688	0		3.323314208984375	0.16717018127441408	0		4.84263671875	0.39306756591796876	0		5.60657373046875	0.2032607421875	0		-0.45642059326171874	5.84205078125	0		
0.026393428802490234	0.002840620040893555	0		0.5123695678710938	-2.3602275390625	0		-1.08582373046875	-0.012841126441955567	0		-0.6831765747070313	-2.506068115234375	0		1.5856844482421875	-0.5660578002929687	0		3.337308349609375	0.17415422058105468	0		4.84959130859375	0.39077490234375	0		5.6066357421875	0.24239698791503905	0		-0.29478662109375	5.88241357421875	0		
0.0033129138946533204	0.006976059913635254	0		0.5068558044433594	-2.345392333984375	0		-1.0928983154296874	-0.007614932060241699	0		-0.623842041015625	-2.50263232421875	0		1.625406494140625	-0.5689385375976562	0		3.310205078125	0.17156553649902342	0		4.847703125	0.4035752258300781	0		5.605814453125	0.2400367431640625	0		-0.294549560546875	5.88239453125	0		
0.024160425186157228	0.0026708710193634033	0		0.5251093139648437	-2.354791748046875	0		-1.1080308837890624	-0.009285185813903809	0		-0.6995023193359375	-2.499772216796875	0		1.604177001953125	-0.568170166015625	0		3.34719580078125	0.17632916259765624	0		4.860599609375	0.3942414245605469	0		5.6114140625	0.2358238525390625	0		-0.30742349243164063	5.8715302734375	0		
0.003031498908996582	-0.0011690130233764648	0		0.4954908142089844	-2.354658203125	0		-1.113163330078125	-0.01304268455505371	0		-0.6342678833007812	-2.51039306640625	0		1.6199058837890625	-0.57376953125	0		3.337072998046875	0.168617919921875	0		4.8516240234375	0.39517630004882814	0		5.60842431640625	0.22151759338378907	0		-0.44139138793945315	5.8530048828125	0		
-0.002970928907394409	0.0038534889221191406	0		0.49391162109375	-2.3547998046875	0		-1.1082799072265626	-0.017894412994384764	0		-0.7027665405273438	-2.49954248046875	0		1.5836676025390626	-0.5787717895507812	0		3.34107421875	0.16979165649414063	0		4.84964208984375	0.3930814208984375	0		5.60343359375	0.2333017120361328	0		-0.4260546875	5.86190380859375	0		
0.003982806921005249	0.0017527780532836915	0		0.5073566589355468	-2.357086669921875	0		-1.0993197021484375	-0.018779613494873046	0		-0.6194475708007813	-2.510362060546875	0		1.60555126953125	-0.5763842163085937	0		3.330917724609375	0.15416331481933593	0		4.84870263671875	0.39202532958984376	0		5.60909521484375	0.22932083129882813	0		-0.42384954833984373	5.8589619140625	0		
0.0029971110820770264	0.0017621829509735108	0		0.5079131774902343	-2.35420556640625	0		-1.1121937255859375	-0.008402545928955079	0		-0.6908836669921875	-2.503417236328125	0		1.6044449462890624	-0.5767089233398438	0		3.34725048828125	0.17828123474121094	0		4.8518671875	0.3969774475097656	0		5.60837255859375	0.227344970703125	0		-0.2913571472167969	5.88053955078125	0		
-0.005923046112060547	0.0038865270614624023	0		0.5174827880859375	-2.355405029296875	0		-1.1171865234375	-0.012100383758544922	0		-0.6363588256835937	-2.50590234375	0		1.618289794921875	-0.58517529296875	0		3.315144775390625	0.1610037384033203	0		4.856095703125	0.40397406005859376	0		5.6148134765625	0.2252757110595703	0		-0.4243559265136719	5.8611884765625	0		
-0.001881497025489807	-0.0011196490526199341	0		0.4881305236816406	-2.35511962890625	0		-1.131206298828125	-0.021677295684814454	0		-0.7106893310546875	-2.50085888671875	0		1.6111824951171876	-0.593364013671875	0		3.337358154296875	0.1671409912109375	0		4.8461083984375	0.3891961364746094	0		5.60482275390625	0.21167593383789063	0		-0.438253173828125	5.85048974609375	0		
-0.002731829881668091	-0.0010481259822845458	0		0.4967354431152344	-2.364259033203125	0		-1.132060302734375	-0.021396984100341798	0		-0.6780647583007813	-2.50606689453125	0		1.5902362060546875	-0.5923489990234375	0		3.341453857421875	0.15953521728515624	0		4.8543173828125	0.38726263427734375	0		5.60770458984375	0.1978208465576172	0		-0.43802163696289065	5.8506416015625	0		
-0.00846639347076416	0.004102517127990723	0		0.46372189331054686	-2.347865966796875	0		-1.1328602294921875	-0.0211085205078125	0		-0.7091892700195312	-2.4964912109375	0		1.6242105712890624	-0.6029682006835938	0		3.3308583984375	0.1731579132080078	0		4.8437744140625	0.40161895751953125	0		5.605814453125	0.22055470275878905	0		-0.4226787109375	5.85962353515625	0		
0.024770221710205077	0.0017871919870376587	0		0.5404896240234375	-2.35680615234375	0		-1.1336002197265624	-0.020814479827880858	0		-0.6743807983398438	-2.49971484375	0		1.59155029296875	-0.588735595703125	0		3.344037353515625	0.16353681945800783	0		4.8670029296875	0.3926220397949219	0		5.61240576171875	0.2189361572265625	0		-0.28917828369140625	5.88014404296875	0		
-0.004937066078186035	-7.309349775314331E-4	0		0.48549322509765624	-2.353090087890625	0		-1.1383255615234376	-0.024467140197753905	0		-0.6425069580078125	-2.504904296875	0		1.6136463623046875	-0.600151123046875	0		3.338479248046875	0.17019987487792967	0		4.8473935546875	0.39222512817382815	0		5.61541455078125	0.20544024658203125	0		-0.2899237365722656	5.881322265625	0		
0.011469904899597167	1.8618999421596527E-4	0		0.5255588989257812	-2.35254931640625	0		-1.0680028076171875	-0.030073505401611328	0		-0.6804568481445312	-2.503207763671875	0		1.6158153076171875	-0.6112882690429687	0		3.34281005859375	0.16278811645507812	0		4.86584423828125	0.39141690063476564	0		5.6213876953125	0.20409149169921875	0		-0.4370750732421875	5.85137060546875	0		
-0.006076210975646972	-4.535439908504486E-4	0		0.49155938720703124	-2.36405078125	0		-1.1475606689453124	-0.03077187156677246	0		-0.6704285888671875	-2.511114990234375	0		1.6211214599609376	-0.6174370727539062	0		3.33823291015625	0.1575379638671875	0		4.8602587890625	0.38297711181640626	0		5.61457470703125	0.20326322937011718	0		-0.30357162475585936	5.870859375	0		
